<svg width="40" height="40" viewBox="0 0 40 40" fill="none" xmlns="http://www.w3.org/2000/svg">
<path d="M33.3333 17.5C32.8913 17.5 32.4674 17.6756 32.1548 17.9882C31.8423 18.3007 31.6667 18.7247 31.6667 19.1667V30.8334C31.6667 31.2754 31.4911 31.6993 31.1785 32.0119C30.866 32.3244 30.442 32.5 30 32.5H6.66666C6.22464 32.5 5.80071 32.3244 5.48815 32.0119C5.17559 31.6993 5 31.2754 5 30.8334V17.5C5 17.058 5.17559 16.6341 5.48815 16.3215C5.80071 16.0089 6.22464 15.8334 6.66666 15.8334H10C10.3634 15.8523 10.7231 15.7518 11.0241 15.5472C11.325 15.3425 11.5507 15.045 11.6667 14.7L12.5667 11.9667C12.6785 11.6357 12.8915 11.3481 13.1756 11.1448C13.4597 10.9414 13.8006 10.8325 14.15 10.8334H23.3333C23.7754 10.8334 24.1993 10.6578 24.5118 10.3452C24.8244 10.0326 25 9.60871 25 9.16669C25 8.72466 24.8244 8.30074 24.5118 7.98818C24.1993 7.67562 23.7754 7.50002 23.3333 7.50002H14.0667C13.0192 7.50198 11.9989 7.83283 11.1496 8.44586C10.3003 9.0589 9.66501 9.92317 9.33333 10.9167L8.8 12.5834H6.66666C5.34058 12.5834 4.06881 13.1101 3.13113 14.0478C2.19345 14.9855 1.66666 16.2573 1.66666 17.5834V30.9167C1.66666 32.2428 2.19345 33.5145 3.13113 34.4522C4.06881 35.3899 5.34058 35.9167 6.66666 35.9167H30C31.3261 35.9167 32.5979 35.3899 33.5355 34.4522C34.4732 33.5145 35 32.2428 35 30.9167V19.25C35.0113 19.0242 34.9766 18.7985 34.8979 18.5866C34.8192 18.3747 34.6982 18.181 34.5423 18.0173C34.3864 17.8536 34.1988 17.7233 33.991 17.6344C33.7832 17.5454 33.5594 17.4997 33.3333 17.5ZM18.3333 15.8334C17.0148 15.8334 15.7259 16.2243 14.6295 16.9569C13.5332 17.6894 12.6787 18.7306 12.1741 19.9488C11.6695 21.167 11.5375 22.5074 11.7948 23.8006C12.052 25.0938 12.6869 26.2817 13.6193 27.2141C14.5516 28.1464 15.7395 28.7814 17.0327 29.0386C18.3259 29.2958 19.6664 29.1638 20.8846 28.6592C22.1027 28.1546 23.1439 27.3001 23.8765 26.2038C24.609 25.1075 25 23.8186 25 22.5C25 20.7319 24.2976 19.0362 23.0474 17.786C21.7971 16.5357 20.1014 15.8334 18.3333 15.8334ZM18.3333 25.8334C17.6741 25.8334 17.0296 25.6379 16.4814 25.2716C15.9333 24.9053 15.506 24.3847 15.2537 23.7756C15.0014 23.1665 14.9354 22.4963 15.064 21.8497C15.1927 21.2031 15.5101 20.6092 15.9763 20.143C16.4425 19.6768 17.0364 19.3594 17.683 19.2307C18.3296 19.1021 18.9999 19.1681 19.6089 19.4204C20.218 19.6727 20.7386 20.1 21.1049 20.6481C21.4712 21.1963 21.6667 21.8407 21.6667 22.5C21.6667 23.3841 21.3155 24.2319 20.6904 24.857C20.0652 25.4822 19.2174 25.8334 18.3333 25.8334ZM36.6667 7.50002H35V5.83335C35 5.39133 34.8244 4.9674 34.5118 4.65484C34.1993 4.34228 33.7754 4.16669 33.3333 4.16669C32.8913 4.16669 32.4674 4.34228 32.1548 4.65484C31.8423 4.9674 31.6667 5.39133 31.6667 5.83335V7.50002H30C29.558 7.50002 29.134 7.67562 28.8215 7.98818C28.5089 8.30074 28.3333 8.72466 28.3333 9.16669C28.3333 9.60871 28.5089 10.0326 28.8215 10.3452C29.134 10.6578 29.558 10.8334 30 10.8334H31.6667V12.5C31.6667 12.942 31.8423 13.366 32.1548 13.6785C32.4674 13.9911 32.8913 14.1667 33.3333 14.1667C33.7754 14.1667 34.1993 13.9911 34.5118 13.6785C34.8244 13.366 35 12.942 35 12.5V10.8334H36.6667C37.1087 10.8334 37.5326 10.6578 37.8452 10.3452C38.1577 10.0326 38.3333 9.60871 38.3333 9.16669C38.3333 8.72466 38.1577 8.30074 37.8452 7.98818C37.5326 7.67562 37.1087 7.50002 36.6667 7.50002Z" fill="black" fill-opacity="0.1"/>
</svg>
