<svg width="28" height="20" viewBox="0 0 28 20" fill="none" xmlns="http://www.w3.org/2000/svg">
<path d="M14 14.4883C14.3076 14.4795 14.5889 14.3652 14.8174 14.1191L21.4971 7.28125C21.6904 7.08789 21.7959 6.8418 21.7959 6.55176C21.7959 5.97168 21.3389 5.50586 20.7588 5.50586C20.4775 5.50586 20.2051 5.62012 20.0029 5.82227L14.0088 11.9834L7.99707 5.82227C7.79492 5.62891 7.53125 5.50586 7.24121 5.50586C6.66113 5.50586 6.2041 5.97168 6.2041 6.55176C6.2041 6.8418 6.30957 7.08789 6.50293 7.28125L13.1914 14.1191C13.4287 14.3652 13.6924 14.4883 14 14.4883Z" fill="black"/>
</svg>
