<svg width="28" height="20" viewBox="0 0 28 20" fill="none" xmlns="http://www.w3.org/2000/svg">
<path d="M7.94434 17.8809H20.0469C21.9541 17.8809 22.9473 16.8965 22.9473 15.0156V4.31934C22.9473 2.43848 21.9541 1.4541 20.0469 1.4541H7.94434C6.0459 1.4541 5.05273 2.42969 5.05273 4.31934V15.0156C5.05273 16.8965 6.0459 17.8809 7.94434 17.8809ZM7.93555 16.1318C7.20605 16.1318 6.80176 15.7539 6.80176 14.9805V6.89453C6.80176 6.12109 7.20605 5.74316 7.93555 5.74316H20.0557C20.7852 5.74316 21.1895 6.12109 21.1895 6.89453V14.9805C21.1895 15.7539 20.7852 16.1318 20.0557 16.1318H7.93555ZM12.3037 8.77539H12.8223C13.1387 8.77539 13.2441 8.67871 13.2441 8.37109V7.85254C13.2441 7.53613 13.1387 7.43945 12.8223 7.43945H12.3037C11.9873 7.43945 11.8818 7.53613 11.8818 7.85254V8.37109C11.8818 8.67871 11.9873 8.77539 12.3037 8.77539ZM15.1777 8.77539H15.6963C16.0039 8.77539 16.1094 8.67871 16.1094 8.37109V7.85254C16.1094 7.53613 16.0039 7.43945 15.6963 7.43945H15.1777C14.8613 7.43945 14.7559 7.53613 14.7559 7.85254V8.37109C14.7559 8.67871 14.8613 8.77539 15.1777 8.77539ZM18.043 8.77539H18.5615C18.8779 8.77539 18.9834 8.67871 18.9834 8.37109V7.85254C18.9834 7.53613 18.8779 7.43945 18.5615 7.43945H18.043C17.7354 7.43945 17.6299 7.53613 17.6299 7.85254V8.37109C17.6299 8.67871 17.7354 8.77539 18.043 8.77539ZM9.43848 11.6055H9.94824C10.2646 11.6055 10.3701 11.5088 10.3701 11.1924V10.6738C10.3701 10.3662 10.2646 10.2695 9.94824 10.2695H9.43848C9.12207 10.2695 9.0166 10.3662 9.0166 10.6738V11.1924C9.0166 11.5088 9.12207 11.6055 9.43848 11.6055ZM12.3037 11.6055H12.8223C13.1387 11.6055 13.2441 11.5088 13.2441 11.1924V10.6738C13.2441 10.3662 13.1387 10.2695 12.8223 10.2695H12.3037C11.9873 10.2695 11.8818 10.3662 11.8818 10.6738V11.1924C11.8818 11.5088 11.9873 11.6055 12.3037 11.6055ZM15.1777 11.6055H15.6963C16.0039 11.6055 16.1094 11.5088 16.1094 11.1924V10.6738C16.1094 10.3662 16.0039 10.2695 15.6963 10.2695H15.1777C14.8613 10.2695 14.7559 10.3662 14.7559 10.6738V11.1924C14.7559 11.5088 14.8613 11.6055 15.1777 11.6055ZM18.043 11.6055H18.5615C18.8779 11.6055 18.9834 11.5088 18.9834 11.1924V10.6738C18.9834 10.3662 18.8779 10.2695 18.5615 10.2695H18.043C17.7354 10.2695 17.6299 10.3662 17.6299 10.6738V11.1924C17.6299 11.5088 17.7354 11.6055 18.043 11.6055ZM9.43848 14.4268H9.94824C10.2646 14.4268 10.3701 14.3301 10.3701 14.0225V13.5039C10.3701 13.1875 10.2646 13.0908 9.94824 13.0908H9.43848C9.12207 13.0908 9.0166 13.1875 9.0166 13.5039V14.0225C9.0166 14.3301 9.12207 14.4268 9.43848 14.4268ZM12.3037 14.4268H12.8223C13.1387 14.4268 13.2441 14.3301 13.2441 14.0225V13.5039C13.2441 13.1875 13.1387 13.0908 12.8223 13.0908H12.3037C11.9873 13.0908 11.8818 13.1875 11.8818 13.5039V14.0225C11.8818 14.3301 11.9873 14.4268 12.3037 14.4268ZM15.1777 14.4268H15.6963C16.0039 14.4268 16.1094 14.3301 16.1094 14.0225V13.5039C16.1094 13.1875 16.0039 13.0908 15.6963 13.0908H15.1777C14.8613 13.0908 14.7559 13.1875 14.7559 13.5039V14.0225C14.7559 14.3301 14.8613 14.4268 15.1777 14.4268Z" fill="black" fill-opacity="0.6"/>
</svg>
