<svg width="25" height="25" viewBox="0 0 25 25" fill="none" xmlns="http://www.w3.org/2000/svg">
<path fill-rule="evenodd" clip-rule="evenodd" d="M9.088 7.12743C10.334 7.12743 11.349 8.14243 11.349 9.38843C11.349 10.6344 10.334 11.6484 9.088 11.6484C7.842 11.6484 6.827 10.6344 6.827 9.38843C6.827 8.14243 7.842 7.12743 9.088 7.12743ZM6.726 15.2304C7.911 14.6744 8.869 15.0184 9.796 15.3524C10.495 15.6044 11.219 15.8644 12.22 15.8644C12.998 15.8644 13.457 15.1774 14.12 14.0434C14.78 12.9164 15.601 11.5134 17.259 11.5134C19.563 11.5134 20.991 12.9664 21.959 14.0374C21.984 13.5794 22 13.1054 22 12.6044C22 5.40543 19.448 2.85443 12.25 2.85443C5.052 2.85443 2.5 5.40543 2.5 12.6044C2.5 15.2894 2.856 17.3274 3.676 18.8284C4.192 17.8114 5.314 15.8934 6.726 15.2304Z" fill="black"/>
<path fill-rule="evenodd" clip-rule="evenodd" d="M21.4815 15.7358C21.3345 15.5848 21.1785 15.4118 21.0115 15.2248C20.1275 14.2398 19.0265 13.0128 17.2585 13.0128C16.5145 13.0128 16.0655 13.6888 15.4155 14.8008C14.7465 15.9438 13.9155 17.3648 12.2195 17.3648C10.9565 17.3648 10.0315 17.0318 9.2875 16.7628C8.4115 16.4468 7.9595 16.3068 7.3645 16.5878C6.2325 17.1198 5.0965 19.2658 4.7545 20.0478C4.7345 20.0958 4.7035 20.1348 4.6745 20.1768C6.2115 21.7158 8.6495 22.3538 12.2505 22.3538C18.2095 22.3538 20.9775 20.5958 21.7565 15.9098C21.6555 15.8718 21.5615 15.8178 21.4815 15.7358Z" fill="black"/>
</svg>
