<svg width="28" height="28" viewBox="0 0 28 28" fill="none" xmlns="http://www.w3.org/2000/svg">
<path d="M3.50586 21.8194L5.10547 23.419C5.93164 24.254 6.90723 24.2012 7.79492 23.2256L17.1025 12.9512C17.3486 13.0215 17.6035 13.004 17.9023 12.9512L18.7813 12.7842L19.2998 13.3116L19.2559 13.7774C19.2207 14.2432 19.3613 14.6299 19.8184 15.0782L20.5127 15.7549C20.9961 16.2383 21.6201 16.2647 22.0859 15.7989L24.7314 13.1446C25.1973 12.67 25.1797 12.0635 24.6963 11.5801L24.002 10.8858C23.5537 10.4376 23.1758 10.2794 22.7188 10.3145L22.2354 10.3585L21.7344 9.86627L21.9365 8.94342C22.0684 8.35455 21.9102 7.9151 21.3125 7.31744L19.3877 5.40142C16.3467 2.3692 12.1807 2.38678 9.5 5.06744C9.09571 5.46295 9.06934 6.01666 9.29785 6.40338C9.52637 6.78131 9.99219 7.0274 10.625 6.8692C11.9522 6.55279 13.2705 6.52642 14.4834 7.30865L13.9912 8.53912C13.8154 8.96099 13.7803 9.32135 13.8682 9.64654L3.69043 19.1299C2.74121 20.0001 2.6709 20.9756 3.50586 21.8194ZM11.1523 5.45416C13.2969 3.98639 16.1533 4.31158 18.0869 6.24517L20.2314 8.38092C20.4512 8.59185 20.4863 8.76764 20.4248 9.07525L20.1611 10.3848L21.5762 11.7999L22.4551 11.7471C22.666 11.7383 22.7363 11.7559 22.8945 11.9141L23.334 12.3536L21.2773 14.4102L20.8379 13.9708C20.6797 13.8126 20.6533 13.7422 20.6621 13.5225L20.7148 12.6524L19.3086 11.2374L17.9639 11.4659C17.6738 11.5186 17.5244 11.501 17.3047 11.2813L15.6084 9.59381C15.3799 9.37408 15.3447 9.20709 15.4766 8.88189L16.2676 6.99224C14.8613 5.64752 13.0244 5.11139 11.2227 5.61236C11.0996 5.63873 11.0469 5.53326 11.1523 5.45416ZM5.8877 22.004L4.91211 21.0372C4.54297 20.668 4.63086 20.4131 4.93848 20.1231L14.7647 10.8594L15.9248 12.0284L6.79297 21.9864C6.51172 22.294 6.24805 22.3731 5.8877 22.004Z" fill="black" fill-opacity="0.1"/>
</svg>
