<svg width="40" height="40" viewBox="0 0 40 40" fill="none" xmlns="http://www.w3.org/2000/svg">
<path d="M13.9443 27.8809H26.0469C27.9541 27.8809 28.9473 26.8965 28.9473 25.0156V14.3193C28.9473 12.4385 27.9541 11.4541 26.0469 11.4541H13.9443C12.0459 11.4541 11.0527 12.4297 11.0527 14.3193V25.0156C11.0527 26.8965 12.0459 27.8809 13.9443 27.8809ZM13.9355 26.1318C13.2061 26.1318 12.8018 25.7539 12.8018 24.9805V16.8945C12.8018 16.1211 13.2061 15.7432 13.9355 15.7432H26.0557C26.7852 15.7432 27.1895 16.1211 27.1895 16.8945V24.9805C27.1895 25.7539 26.7852 26.1318 26.0557 26.1318H13.9355ZM15.4385 18.8984H24.5703C24.8867 18.8984 25.124 18.6523 25.124 18.3271C25.124 18.0195 24.8867 17.7822 24.5703 17.7822H15.4385C15.1133 17.7822 14.876 18.0195 14.876 18.3271C14.876 18.6523 15.1133 18.8984 15.4385 18.8984ZM15.4385 21.4912H24.5703C24.8867 21.4912 25.124 21.2539 25.124 20.9463C25.124 20.6299 24.8867 20.375 24.5703 20.375H15.4385C15.1133 20.375 14.876 20.6299 14.876 20.9463C14.876 21.2539 15.1133 21.4912 15.4385 21.4912ZM15.4385 24.084H21.2041C21.5205 24.084 21.7578 23.8467 21.7578 23.5391C21.7578 23.2227 21.5205 22.9766 21.2041 22.9766H15.4385C15.1133 22.9766 14.876 23.2227 14.876 23.5391C14.876 23.8467 15.1133 24.084 15.4385 24.084Z" fill="white"/>
</svg>
