<svg width="29" height="20" viewBox="0 0 29 20" fill="none" xmlns="http://www.w3.org/2000/svg">
<path d="M8.13672 10.6562H13.498V16.0176C13.498 16.5625 13.9463 17.0195 14.5 17.0195C15.0537 17.0195 15.502 16.5625 15.502 16.0176V10.6562H20.8633C21.4082 10.6562 21.8652 10.208 21.8652 9.6543C21.8652 9.10059 21.4082 8.65234 20.8633 8.65234H15.502V3.29102C15.502 2.74609 15.0537 2.28906 14.5 2.28906C13.9463 2.28906 13.498 2.74609 13.498 3.29102V8.65234H8.13672C7.5918 8.65234 7.13477 9.10059 7.13477 9.6543C7.13477 10.208 7.5918 10.6562 8.13672 10.6562Z" fill="white"/>
</svg>
