<svg width="40" height="40" viewBox="0 0 40 40" fill="none" xmlns="http://www.w3.org/2000/svg">
<path d="M14.1465 23.9258H15.3506C15.7285 23.9258 16.001 23.6973 16.0889 23.3369L16.4404 21.9131C16.6689 21.8252 16.8975 21.7373 17.0996 21.6318L18.3477 22.4053C18.6641 22.5986 19.0332 22.5635 19.2969 22.2998L20.1406 21.4561C20.3955 21.1836 20.4395 20.8057 20.2373 20.4893L19.4727 19.25C19.5781 19.0391 19.6748 18.8281 19.7363 18.6172L21.1689 18.2656C21.5381 18.1777 21.7666 17.9053 21.7666 17.5186V16.3408C21.7666 15.9629 21.5381 15.6904 21.1689 15.5938L19.7539 15.251C19.6748 15.0049 19.5781 14.7852 19.4902 14.6006L20.2373 13.335C20.4395 13.001 20.4307 12.6582 20.1582 12.3857L19.2969 11.5508C19.0332 11.2959 18.6729 11.2344 18.3652 11.4277L17.0996 12.2188C16.9062 12.1133 16.6777 12.0166 16.4404 11.9463L16.0889 10.4961C16.001 10.127 15.7285 9.89844 15.3506 9.89844H14.1465C13.7598 9.89844 13.4961 10.127 13.3994 10.4961L13.0566 11.9287C12.8193 12.0078 12.5908 12.0957 12.3887 12.2012L11.123 11.4277C10.8154 11.2344 10.4639 11.2959 10.2002 11.5508L9.33887 12.3857C9.06641 12.6582 9.05762 13.001 9.25098 13.335L9.99805 14.6006C9.91895 14.7852 9.82227 15.0049 9.73438 15.251L8.31934 15.5938C7.9502 15.6904 7.73047 15.9629 7.73047 16.3408V17.5186C7.73047 17.9053 7.9502 18.1777 8.31934 18.2656L9.76074 18.6172C9.82227 18.8281 9.91895 19.0391 10.0244 19.25L9.25098 20.4893C9.05762 20.8057 9.09277 21.1836 9.35645 21.4561L10.2002 22.2998C10.4639 22.5635 10.833 22.5986 11.1494 22.4053L12.3975 21.6318C12.5996 21.7373 12.8193 21.8252 13.0566 21.9131L13.3994 23.3369C13.4961 23.6973 13.7598 23.9258 14.1465 23.9258ZM14.7441 19.0479C13.5752 19.0479 12.6084 18.0811 12.6084 16.9033C12.6084 15.7432 13.5752 14.7764 14.7441 14.7764C15.9131 14.7764 16.8799 15.7432 16.8799 16.9033C16.8799 18.0811 15.9131 19.0479 14.7441 19.0479ZM25.7305 29.4189H26.7324C27.084 29.4189 27.3301 29.2168 27.4004 28.9004L27.6904 27.6699C27.8926 27.5908 28.0771 27.5293 28.2617 27.4238L29.334 28.1006C29.6064 28.2676 29.9229 28.2412 30.1602 28.0127L30.8633 27.292C31.1006 27.0547 31.1357 26.7295 30.96 26.457L30.3008 25.3848C30.3887 25.209 30.4678 25.0244 30.5205 24.8398L31.7686 24.5498C32.085 24.4707 32.2695 24.2334 32.2695 23.8906V22.8975C32.2695 22.5547 32.085 22.3086 31.7686 22.2383L30.5293 21.9395C30.4678 21.7285 30.3975 21.5439 30.3096 21.3857L30.96 20.2959C31.1445 20.0059 31.127 19.707 30.8809 19.4697L30.1602 18.7666C29.9229 18.5469 29.6152 18.4854 29.3428 18.6611L28.2617 19.3379C28.0859 19.25 27.8926 19.1621 27.6904 19.1006L27.4004 17.8438C27.3301 17.5361 27.084 17.3252 26.7324 17.3252H25.7305C25.3877 17.3252 25.1504 17.5361 25.0713 17.8438L24.7725 19.083C24.5791 19.1621 24.377 19.2324 24.2012 19.3291L23.1201 18.6523C22.8564 18.4941 22.54 18.5293 22.3027 18.7666L21.5908 19.4697C21.3447 19.707 21.3359 20.0059 21.5117 20.2959L22.1533 21.3857C22.083 21.5439 22.0039 21.7285 21.9336 21.9395L20.7119 22.2383C20.3867 22.3086 20.1934 22.5547 20.1934 22.8975V23.8906C20.1934 24.2246 20.3867 24.4707 20.7119 24.5498L21.9512 24.8398C22.0127 25.0244 22.083 25.209 22.1709 25.3848L21.5117 26.457C21.3271 26.7207 21.3711 27.0547 21.5996 27.292L22.3027 28.0127C22.54 28.2412 22.8652 28.2676 23.1377 28.1006L24.21 27.4238C24.3857 27.5293 24.5791 27.5908 24.7725 27.6699L25.0713 28.9004C25.1504 29.2168 25.3877 29.4189 25.7305 29.4189ZM26.2402 25.0684C25.2998 25.0684 24.5439 24.3037 24.5439 23.3633C24.5439 22.4404 25.3086 21.6758 26.2402 21.6758C27.1719 21.6758 27.9277 22.4404 27.9277 23.3633C27.9277 24.3037 27.1719 25.0684 26.2402 25.0684Z" fill="white"/>
</svg>
